<?xml version="1.0" encoding="utf-8"?>
<!-- Generator: Adobe Illustrator 23.0.3, SVG Export Plug-In . SVG Version: 6.00 Build 0)  -->
<svg version="1.1" id="Layer_1" xmlns="http://www.w3.org/2000/svg" xmlns:xlink="http://www.w3.org/1999/xlink" x="0px" y="0px"
	 width="80px" height="160px" viewBox="0 0 80 160" style="enable-background:new 0 0 80 160;" xml:space="preserve">
<style type="text/css">
	.st0{clip-path:url(#SVGID_2_);}
	.st1{fill:none;}
	.st2{fill:#10384F;}
	.st3{fill:#FFFFFF;}
	.st4{fill:#0091DF;}
</style>
<g>
	<defs>
		<rect id="SVGID_1_" width="80" height="160"/>
	</defs>
	<clipPath id="SVGID_2_">
		<use xlink:href="#SVGID_1_"  style="overflow:visible;"/>
	</clipPath>
	<g id="custom_1" class="st0">
		<rect class="st1" width="80" height="160"/>
		<g id="Group_1" transform="translate(0 -0.907)">
			<g id="Play" transform="translate(5 7.907)">
				<ellipse id="Ellipse_1" class="st2" cx="35" cy="33" rx="35" ry="35"/>
				<path id="play-circle" class="st3" d="M35,56.7c-13.1,0-23.7-10.6-23.7-23.7c0-6.3,2.5-12.3,6.9-16.8c9.2-9.3,24.2-9.5,33.5-0.3
					s9.5,24.2,0.3,33.5c-0.1,0.1-0.2,0.2-0.3,0.3C47.3,54.2,41.3,56.7,35,56.7z M35,11.8c-11.7,0-21.2,9.5-21.2,21.2
					S23.3,54.2,35,54.2S56.2,44.7,56.2,33l0,0C56.2,21.3,46.7,11.8,35,11.8z M27.5,46.7c-0.2,0-0.4-0.1-0.6-0.2
					c-0.4-0.2-0.6-0.6-0.6-1.1V20.5c0-0.7,0.6-1.2,1.3-1.2c0.2,0,0.5,0.1,0.6,0.2l20,12.5c0.6,0.4,0.8,1.1,0.4,1.7
					c-0.1,0.2-0.2,0.3-0.4,0.4l-20,12.5C28,46.7,27.8,46.7,27.5,46.7z M28.8,22.8v20.4L45.1,33L28.8,22.8z"/>
			</g>
			<g id="Play-2" transform="translate(5 83.919)">
				<ellipse id="Ellipse_1-2" class="st4" cx="35" cy="37" rx="35" ry="35"/>
				<path id="play-circle-2" class="st3" d="M35,60.7c-13.1,0-23.7-10.6-23.7-23.7c0-6.3,2.5-12.3,6.9-16.8
					c9.2-9.3,24.2-9.5,33.5-0.3s9.5,24.2,0.3,33.5c-0.1,0.1-0.2,0.2-0.3,0.3C47.3,58.2,41.3,60.7,35,60.7z M35,15.8
					c-11.7,0-21.2,9.5-21.2,21.2S23.3,58.2,35,58.2S56.2,48.7,56.2,37l0,0C56.2,25.3,46.7,15.8,35,15.8z M27.5,50.7
					c-0.2,0-0.4-0.1-0.6-0.2c-0.4-0.2-0.6-0.6-0.6-1.1V24.5c0-0.7,0.6-1.2,1.3-1.2c0.2,0,0.5,0.1,0.6,0.2l20,12.5
					c0.6,0.4,0.8,1.1,0.4,1.7c-0.1,0.2-0.2,0.3-0.4,0.4l-20,12.5C28,50.6,27.8,50.7,27.5,50.7z M28.8,26.8v20.4L45.1,37L28.8,26.8z"
					/>
			</g>
		</g>
	</g>
</g>
</svg>
